<svg version="1.1" id="Layer_1" xmlns="http://www.w3.org/2000/svg" xmlns:xlink="http://www.w3.org/1999/xlink" x="0px" y="0px"
	 width="100%" viewBox="0 0 960 960" enable-background="new 0 0 960 960" xml:space="preserve">
<path fill="#E51114" opacity="1.000000" stroke="none" 
	d="
M446.000000,961.000000 
	C297.333344,961.000000 149.166672,961.000000 1.000000,961.000000 
	C1.000000,641.000000 1.000000,321.000000 1.000000,1.000000 
	C321.000000,1.000000 641.000000,1.000000 961.000000,1.000000 
	C961.000000,321.000000 961.000000,641.000000 961.000000,961.000000 
	C789.500000,961.000000 618.000000,961.000000 446.000000,961.000000 
M301.844421,431.022644 
	C309.141144,430.710510 316.456024,430.615723 323.728027,430.007935 
	C328.382874,429.618866 331.246735,431.435608 333.425018,435.341827 
	C337.799255,443.185944 342.490479,450.855164 346.775940,458.745850 
	C348.171875,461.316101 349.802979,462.197418 352.631958,462.183380 
	C369.962646,462.097382 387.294067,462.174652 404.625244,462.163269 
	C406.376617,462.162109 408.127899,461.932892 410.192352,461.787445 
	C409.866638,460.553131 409.677612,459.768646 409.452698,458.994537 
	C400.872223,429.463593 392.269562,399.939087 383.720459,370.399048 
	C381.920868,364.180817 383.722107,361.435516 390.123566,361.248077 
	C398.781433,360.994629 407.452118,361.140808 416.117004,361.180634 
	C420.023438,361.198578 422.726837,362.724640 424.952148,366.367920 
	C443.688049,397.042297 462.714233,427.539246 481.496552,458.185486 
	C483.296326,461.122101 485.198547,462.207458 488.598572,462.228851 
	C503.083954,462.319885 517.620728,462.040558 532.035767,463.189087 
	C544.968628,464.219482 557.210815,468.366943 566.517395,478.187408 
	C568.679688,480.469116 570.641479,481.418304 573.727051,481.408295 
	C605.391052,481.305359 637.055786,481.429321 668.719666,481.315186 
	C690.801819,481.235596 712.543762,478.377899 733.876465,472.571564 
	C773.692688,461.734406 806.324951,439.292969 833.585449,409.068481 
	C855.779907,384.460938 877.047668,358.995819 898.170227,333.451080 
	C911.198608,317.695007 923.203796,301.091492 935.603943,284.819305 
	C936.736938,283.332428 937.399231,281.486877 938.610535,279.178162 
	C935.861694,279.178162 934.062622,279.178314 932.263489,279.178162 
	C783.774597,279.164764 635.285645,279.095367 486.796875,279.215912 
	C470.151733,279.229431 453.474945,279.850006 436.869049,281.000732 
	C392.956482,284.043671 353.422974,298.710388 321.340302,329.350006 
	C295.576752,353.954773 270.659515,379.545898 246.717987,405.925751 
	C228.517685,425.979736 212.377319,447.910309 195.481949,469.134521 
	C192.753845,472.561584 190.869247,476.660065 188.242264,481.035278 
	C227.718491,481.035278 266.250275,481.035278 304.891876,481.035278 
	C304.891876,479.915009 304.989624,479.091095 304.877289,478.296906 
	C303.082123,465.606018 301.090820,452.939087 299.574829,440.215393 
	C299.236938,437.379486 300.548798,434.347015 301.844421,431.022644 
M527.093567,515.831482 
	C514.099243,515.870239 501.102478,516.060425 488.112305,515.847107 
	C484.623566,515.789856 482.750397,517.003235 481.058563,519.853943 
	C476.898499,526.863464 472.432983,533.691162 468.124939,540.613525 
	C452.652649,565.474854 437.150818,590.318054 421.774353,615.238647 
	C419.168762,619.461426 416.007202,621.172302 410.992981,620.219482 
	C403.968842,618.884766 396.841187,618.103394 389.771881,616.995422 
	C383.012482,615.936035 381.950531,614.335510 383.879974,607.528625 
	C388.366791,591.699402 392.985504,575.907593 397.553833,560.101501 
	C401.742065,545.610535 405.934296,531.120667 410.105225,516.697876 
	C409.483490,516.373779 409.203491,516.100525 408.922760,516.099731 
	C389.763824,516.047485 370.604156,515.945740 351.447113,516.123779 
	C349.950592,516.137695 347.938751,517.800903 347.074280,519.242126 
	C342.284821,527.226807 337.970764,535.501343 333.040802,543.393677 
	C331.745911,545.466614 328.931183,547.672791 326.659393,547.851990 
	C319.540833,548.413574 312.347992,548.070801 305.184479,548.011475 
	C300.766266,547.974915 298.804016,545.385986 299.050018,541.257629 
	C299.257111,537.781738 299.971130,534.335938 300.463867,530.877258 
	C301.954041,520.416809 303.445740,509.956573 305.073700,498.536285 
	C268.288849,499.112854 232.155685,499.270660 196.054657,500.429657 
	C179.755173,500.952911 164.542084,506.473602 152.351028,517.759827 
	C143.456268,525.994385 134.718140,534.622375 127.234772,544.118835 
	C93.221924,587.281494 59.676929,630.812805 25.976130,674.221191 
	C25.215492,675.200989 24.602913,676.295715 23.462482,678.037537 
	C25.889038,678.037537 27.494383,678.001953 29.097792,678.042725 
	C74.734558,679.201965 120.366524,680.610229 166.008743,681.481689 
	C246.799515,683.024170 327.600952,684.761597 408.281647,678.014648 
	C436.376617,675.665161 463.426025,669.581970 488.973999,657.268738 
	C540.925598,632.229858 584.513916,596.381653 623.003723,553.940125 
	C635.326538,540.352112 646.674377,525.975464 655.531494,509.810944 
	C657.327026,506.533966 658.764954,503.061005 660.640930,499.101837 
	C633.164124,499.101837 606.684570,499.200958 580.206665,499.036713 
	C573.003845,498.992065 566.833984,499.591553 560.653198,504.787720 
	C551.549133,512.441467 539.754517,514.603394 527.093567,515.831482 
z"/>
<path fill="#FFFEFE" opacity="1.000000" stroke="none" 
	d="
M301.472778,431.213837 
	C300.548798,434.347015 299.236938,437.379486 299.574829,440.215393 
	C301.090820,452.939087 303.082123,465.606018 304.877289,478.296906 
	C304.989624,479.091095 304.891876,479.915009 304.891876,481.035278 
	C266.250275,481.035278 227.718491,481.035278 188.242264,481.035278 
	C190.869247,476.660065 192.753845,472.561584 195.481949,469.134521 
	C212.377319,447.910309 228.517685,425.979736 246.717987,405.925751 
	C270.659515,379.545898 295.576752,353.954773 321.340302,329.350006 
	C353.422974,298.710388 392.956482,284.043671 436.869049,281.000732 
	C453.474945,279.850006 470.151733,279.229431 486.796875,279.215912 
	C635.285645,279.095367 783.774597,279.164764 932.263489,279.178162 
	C934.062622,279.178314 935.861694,279.178162 938.610535,279.178162 
	C937.399231,281.486877 936.736938,283.332428 935.603943,284.819305 
	C923.203796,301.091492 911.198608,317.695007 898.170227,333.451080 
	C877.047668,358.995819 855.779907,384.460938 833.585449,409.068481 
	C806.324951,439.292969 773.692688,461.734406 733.876465,472.571564 
	C712.543762,478.377899 690.801819,481.235596 668.719666,481.315186 
	C637.055786,481.429321 605.391052,481.305359 573.727051,481.408295 
	C570.641479,481.418304 568.679688,480.469116 566.517395,478.187408 
	C557.210815,468.366943 544.968628,464.219482 532.035767,463.189087 
	C517.620728,462.040558 503.083954,462.319885 488.598572,462.228851 
	C485.198547,462.207458 483.296326,461.122101 481.496552,458.185486 
	C462.714233,427.539246 443.688049,397.042297 424.952148,366.367920 
	C422.726837,362.724640 420.023438,361.198578 416.117004,361.180634 
	C407.452118,361.140808 398.781433,360.994629 390.123566,361.248077 
	C383.722107,361.435516 381.920868,364.180817 383.720459,370.399048 
	C392.269562,399.939087 400.872223,429.463593 409.452698,458.994537 
	C409.677612,459.768646 409.866638,460.553131 410.192352,461.787445 
	C408.127899,461.932892 406.376617,462.162109 404.625244,462.163269 
	C387.294067,462.174652 369.962646,462.097382 352.631958,462.183380 
	C349.802979,462.197418 348.171875,461.316101 346.775940,458.745850 
	C342.490479,450.855164 337.799255,443.185944 333.425018,435.341827 
	C331.246735,431.435608 328.382874,429.618866 323.728027,430.007935 
	C316.456024,430.615723 309.141144,430.710510 301.472778,431.213837 
z"/>
<path fill="#FFFEFE" opacity="1.000000" stroke="none" 
	d="
M527.553223,515.789795 
	C539.754517,514.603394 551.549133,512.441467 560.653198,504.787720 
	C566.833984,499.591553 573.003845,498.992065 580.206665,499.036713 
	C606.684570,499.200958 633.164124,499.101837 660.640930,499.101837 
	C658.764954,503.061005 657.327026,506.533966 655.531494,509.810944 
	C646.674377,525.975464 635.326538,540.352112 623.003723,553.940125 
	C584.513916,596.381653 540.925598,632.229858 488.973999,657.268738 
	C463.426025,669.581970 436.376617,675.665161 408.281647,678.014648 
	C327.600952,684.761597 246.799515,683.024170 166.008743,681.481689 
	C120.366524,680.610229 74.734558,679.201965 29.097792,678.042725 
	C27.494383,678.001953 25.889038,678.037537 23.462482,678.037537 
	C24.602913,676.295715 25.215492,675.200989 25.976130,674.221191 
	C59.676929,630.812805 93.221924,587.281494 127.234772,544.118835 
	C134.718140,534.622375 143.456268,525.994385 152.351028,517.759827 
	C164.542084,506.473602 179.755173,500.952911 196.054657,500.429657 
	C232.155685,499.270660 268.288849,499.112854 305.073700,498.536285 
	C303.445740,509.956573 301.954041,520.416809 300.463867,530.877258 
	C299.971130,534.335938 299.257111,537.781738 299.050018,541.257629 
	C298.804016,545.385986 300.766266,547.974915 305.184479,548.011475 
	C312.347992,548.070801 319.540833,548.413574 326.659393,547.851990 
	C328.931183,547.672791 331.745911,545.466614 333.040802,543.393677 
	C337.970764,535.501343 342.284821,527.226807 347.074280,519.242126 
	C347.938751,517.800903 349.950592,516.137695 351.447113,516.123779 
	C370.604156,515.945740 389.763824,516.047485 408.922760,516.099731 
	C409.203491,516.100525 409.483490,516.373779 410.105225,516.697876 
	C405.934296,531.120667 401.742065,545.610535 397.553833,560.101501 
	C392.985504,575.907593 388.366791,591.699402 383.879974,607.528625 
	C381.950531,614.335510 383.012482,615.936035 389.771881,616.995422 
	C396.841187,618.103394 403.968842,618.884766 410.992981,620.219482 
	C416.007202,621.172302 419.168762,619.461426 421.774353,615.238647 
	C437.150818,590.318054 452.652649,565.474854 468.124939,540.613525 
	C472.432983,533.691162 476.898499,526.863464 481.058563,519.853943 
	C482.750397,517.003235 484.623566,515.789856 488.112305,515.847107 
	C501.102478,516.060425 514.099243,515.870239 527.553223,515.789795 
z"/>
</svg>